<svg xmlns="http://www.w3.org/2000/svg" width="360" height="480" viewBox="0 0 360 480"><defs><linearGradient id="bg" x2="0" y2="1"><stop stop-color="#779e89" stop-opacity=".36" /><stop offset="1" stop-color="#152229" /></linearGradient><linearGradient id="robe" x2="1" y2="1"><stop stop-color="#779e89" /><stop offset="1" stop-color="#1e3135" /></linearGradient></defs>
<rect width="360" height="480" fill="url(#bg)" /><circle cx="220" cy="130" r="99" fill="none" stroke="#779e89" opacity=".3" /><circle cx="220" cy="130" r="84" fill="none" stroke="#779e89" opacity=".15" /><path d="M0 340L100 208L180 297L320 180L360 220V480H0Z" fill="#101d25" opacity=".4" />
<g fill="#779e89" opacity=".24"><path d="M209 811 281 777H728L764 819L847 756Q842 750 831.0 744.5Q820 739 805 736V446Q805 443 795.0 438.0Q785 433 772.0 429.0Q759 425 748 425H738V468H276V438Q276 435 267.5 430.0Q259 425 246.5 420.5Q234 416 220 416H209ZM43 -23H477V128H193L185 157H477V285H269Q250 261 230 240Q169 176 102 137L90 149Q144 197 194.5 275.0Q245 353 279 442L375 400Q371 393 361.5 388.0Q352 383 336 386Q315 348 291 314H477V439L580 428Q579 418 570.5 410.5Q562 403 544 400V314H757L804 373L813 366Q822 359 835.0 348.5Q848 338 862.5 325.0Q877 312 889 300Q885 285 862 285H544V157H737L782 216L791 209Q799 202 812.5 191.0Q826 180 840.5 167.5Q855 155 867 144Q863 128 840 128H544V-23H820L869 40L878 33Q887 26 900.5 14.5Q914 3 929.5 -10.0Q945 -23 958 -36Q954 -52 931 -52H52ZM738 497V610H276V497ZM738 639V749H276V639Z" transform="translate(22.000 82.0) scale(0.068000 -0.068000)" /></g><path d="M86 480L97 302Q119 254 180 249Q243 250 263 303L298 480Z" fill="url(#robe)" /><path d="M154 251L180 322L211 251L225 480H137Z" fill="#d0c4a6" opacity=".65" /><path d="M116 303L167 366L124 465M248 303L196 369L258 470" fill="none" stroke="#779e89" stroke-width="7" />
<path d="M135 161Q132 112 180 108Q231 111 225 166L216 225L182 251L147 226Z" fill="#c5b28f" /><path d="M132 165L129 138Q130 98 182 98Q233 101 229 148L223 176L208 138L153 148L139 180Z" fill="#15212a" /><path d="M151 107L151 73L210 73L210 107Z" fill="#192a31" /><path d="M150 85H211" stroke="#779e89" stroke-width="5" /><path d="M152 188L164 186M196 186L208 188M174 218Q184 222 194 216" stroke="#4c5047" stroke-width="3" fill="none" />
<path d="M67 464L79 271L86 251L91 271L103 464" fill="#9da69b" opacity=".7" /><rect x="16" y="16" width="328" height="448" rx="3" fill="none" stroke="#779e89" opacity=".25" />
<g fill="#779e89"><path d="M278 -15Q219 -15 166.0 24.0Q113 63 80.0 146.5Q47 230 47 366Q47 500 80.0 583.0Q113 666 166.0 704.5Q219 743 278 743Q339 743 391.5 704.5Q444 666 476.5 583.0Q509 500 509 366Q509 230 476.5 146.5Q444 63 391.5 24.0Q339 -15 278 -15ZM278 16Q306 16 332.5 33.5Q359 51 380.0 91.0Q401 131 413.5 198.5Q426 266 426 366Q426 464 413.5 530.5Q401 597 380.0 636.5Q359 676 332.5 693.5Q306 711 278 711Q250 711 223.5 693.5Q197 676 176.0 636.5Q155 597 142.5 530.5Q130 464 130 366Q130 266 142.5 198.5Q155 131 176.0 91.0Q197 51 223.5 33.5Q250 16 278 16Z" transform="translate(274.027 445.0) scale(0.013000 -0.013000)" /><path d="M75 0V28L212 42Q214 136 214 230V677L70 653V683L285 738L300 727L296 569V230Q296 173 297 115Q298 78 298 42L427 27V-1Z" transform="translate(284.268 445.0) scale(0.013000 -0.013000)" /><path d="" transform="translate(293.391 445.0) scale(0.013000 -0.013000)" /><path d="M8 -174 300 772H344L54 -174Z" transform="translate(299.719 445.0) scale(0.013000 -0.013000)" /><path d="" transform="translate(307.295 445.0) scale(0.013000 -0.013000)" /><path d="M75 0V28L212 42Q214 136 214 230V677L70 653V683L285 738L300 727L296 569V230Q296 173 297 115Q298 78 298 42L427 27V-1Z" transform="translate(313.623 445.0) scale(0.013000 -0.013000)" /><path d="M289 -15Q217 -15 164.5 21.5Q112 58 84.0 123.0Q56 188 56 277Q56 364 86.0 443.0Q116 522 171.5 585.5Q227 649 306.5 690.0Q386 731 485 743L490 721Q375 697 297.5 634.5Q220 572 181 482Q157 426 147 363Q218 440 317 440Q378 440 421.0 413.0Q464 386 486.5 336.5Q509 287 509 221Q509 153 480.5 99.5Q452 46 402.5 15.5Q353 -15 289 -15ZM144 331Q142 309 142 286Q142 158 181.0 87.0Q220 16 290 16Q329 16 359.5 39.0Q390 62 408.0 107.0Q426 152 426 215Q426 305 389.5 352.0Q353 399 290 399Q248 399 209 381Q176 365 144 331Z" transform="translate(322.746 445.0) scale(0.013000 -0.013000)" /></g></svg>